HIERARCHY
ROOT hip
{
	OFFSET 0.000000 0.000000 0.000000 
	CHANNELS 6 Xposition Yposition Zposition Xrotation Zrotation Yrotation
	JOINT abdomen
	{
		OFFSET 0.000000 3.402643 0.000000 
		CHANNELS 3 Xrotation Zrotation Yrotation
		JOINT chest
		{
			OFFSET 0.000000 8.438565 -0.680529 
			CHANNELS 3 Xrotation Zrotation Yrotation
			JOINT neck
			{
				OFFSET 0.000000 10.207942 -0.272212 
				CHANNELS 3 Xrotation Zrotation Yrotation
				JOINT head
				{
					OFFSET 0.000000 3.130431 0.000000 
					CHANNELS 3 Xrotation Zrotation Yrotation
					End Site
					{
						OFFSET 0.000000 3.130435 0.000000 
					}
				}
			}
			JOINT lCollar
			{
				OFFSET 3.470700 6.669187 -0.816635 
				CHANNELS 3 Yrotation Zrotation Xrotation
				JOINT lShldr
				{
					OFFSET 3.198488 0.000000 0.000000 
					CHANNELS 3 Zrotation Yrotation Xrotation
					JOINT lForeArm
					{
						OFFSET 10.139888 0.000000 0.000000 
						CHANNELS 3 Yrotation Zrotation Xrotation
						JOINT lHand
						{
							OFFSET 8.370511 0.000000 0.000000 
							CHANNELS 3 Zrotation Yrotation Xrotation
							End Site
							{
								OFFSET 4.083176 0.000000 0.000000 
							}
						}
					}
				}
			}
			JOINT rCollar
			{
				OFFSET -3.470700 6.669187 -0.816635 
				CHANNELS 3 Yrotation Zrotation Xrotation
				JOINT rShldr
				{
					OFFSET -3.198488 0.000000 0.000000 
					CHANNELS 3 Zrotation Yrotation Xrotation
					JOINT rForeArm
					{
						OFFSET -10.139888 0.000000 0.000000 
						CHANNELS 3 Yrotation Zrotation Xrotation
						JOINT rHand
						{
							OFFSET -8.370511 0.000000 0.000000 
							CHANNELS 3 Zrotation Yrotation Xrotation
							End Site
							{
								OFFSET -4.083176 0.000000 0.000000 
							}
						}
					}
				}
			}
		}
	}
	JOINT lThigh
	{
		OFFSET 5.308129 -1.633274 1.361059 
		CHANNELS 3 Xrotation Zrotation Yrotation
		JOINT lShin
		{
			OFFSET -2.041588 -20.007561 0.000000 
			CHANNELS 3 Xrotation Zrotation Yrotation
			JOINT lFoot
			{
				OFFSET 0.000000 -19.190928 -1.224953 
				CHANNELS 3 Xrotation Yrotation Zrotation
				End Site
				{
					OFFSET 0.000000 -2.449906 4.627600 
				}
			}
		}
	}
	JOINT rThigh
	{
		OFFSET -5.308129 -1.633274 1.361059 
		CHANNELS 3 Xrotation Zrotation Yrotation
		JOINT rShin
		{
			OFFSET 2.041588 -20.007561 0.000000 
			CHANNELS 3 Xrotation Zrotation Yrotation
			JOINT rFoot
			{
				OFFSET 0.000000 -19.190928 -1.224953 
				CHANNELS 3 Xrotation Yrotation Zrotation
				End Site
				{
					OFFSET 0.000000 -2.449906 4.627600 
				}
			}
		}
	}
}
MOTION
Frames: 13
Frame Time: 0.011111
32.855438 55.364403 -122.435219 10.507088 0.700877 -6.534972 12.986098 -6.243662 1.211865 -13.609064 5.646519 1.449688 -13.563091 -7.395689 1.355278 19.673992 17.120275 2.703750 -2.206047 -4.843775 0.617946 -69.793098 -33.716106 13.983905 -38.071007 4.024009 3.727249 8.524705 12.647240 -79.886116 -0.446187 9.003916 1.039738 67.138176 26.359371 -25.489363 39.905586 -4.714261 4.359665 -8.534408 -12.637552 11.829936 -2.547052 9.165164 -5.377753 5.916752 -6.003761 -1.546933 -27.905962 7.683602 1.686993 -6.752589 -10.520423 3.314494 11.239941 5.964014 2.288062 -19.825550 3.171809 3.872686 
32.801792 55.368156 -122.483727 10.332144 1.146421 -6.531429 13.372366 -6.688407 0.993218 -13.743775 5.846223 1.434683 -11.159632 -5.568211 1.639454 15.017941 13.753971 3.138952 -2.206047 -4.843775 0.617946 -69.905777 -33.888649 14.582867 -38.432495 4.154206 3.841331 8.524705 12.647240 -79.290413 -0.446187 9.003916 1.039738 67.045731 26.612076 -25.216532 39.844776 -4.690329 4.337895 -8.534408 -12.637552 11.722515 -2.311552 8.693416 -5.306380 5.859546 -6.005342 -1.542701 -27.715841 8.031093 1.785501 -7.026011 -10.949826 3.438204 11.740111 5.953014 2.342844 -21.997488 2.759044 3.658717 
32.735500 55.370548 -122.530540 10.147674 1.544534 -6.549301 13.776539 -7.112611 0.907093 -13.917460 6.073440 1.446390 -7.614402 -2.292619 1.884185 10.712137 6.352056 3.801490 -2.206047 -4.843775 0.617946 -69.978912 -34.068825 15.498946 -38.774563 4.284822 3.964941 8.524705 12.647240 -78.479874 -0.446187 9.003916 1.039738 66.963402 26.845379 -25.822523 39.713444 -4.643182 4.292650 -8.534408 -12.637552 11.087749 -2.116538 8.323776 -5.271928 5.848625 -6.002184 -1.550454 -27.296434 8.628185 1.928994 -7.358054 -11.291766 3.634130 12.407199 5.944800 2.431269 -24.426054 2.658084 3.522475 
32.662373 55.366451 -122.566086 10.032136 1.754041 -6.522924 13.985218 -7.280804 0.952570 -13.857425 6.156865 1.489638 -7.862950 -2.980051 1.994691 11.044260 8.143245 3.997474 -2.206047 -4.843775 0.617946 -69.902901 -34.289761 17.007601 -39.177876 4.437749 4.101623 8.524705 12.647240 -77.122444 -0.446187 9.003916 1.039738 66.951302 26.981953 -26.325050 39.703693 -4.644076 4.291569 -8.534408 -12.637552 10.706890 -2.079437 8.192162 -5.277185 5.864332 -6.000618 -1.542467 -27.045101 8.933995 1.976157 -7.709098 -11.477217 4.018668 12.612597 5.942383 2.488501 -25.954884 2.723255 3.455477 
32.574215 55.359962 -122.598213 9.866925 2.019626 -6.567693 14.402308 -7.420038 0.866146 -14.349400 6.090681 1.440614 -9.038630 -3.762940 1.960059 13.007534 10.677217 4.011268 -2.206047 -4.843775 0.617946 -69.748611 -33.909405 18.549017 -39.743206 4.648006 4.301327 8.524705 12.647240 -75.618538 -0.446187 9.003916 1.039738 67.067131 26.504925 -25.821871 39.835022 -4.691234 4.336806 -8.534408 -12.637552 11.156107 -1.950985 8.002204 -5.177413 5.933304 -6.001072 -1.548643 -27.051195 8.838601 1.935022 -7.991801 -11.652542 4.126584 13.228695 5.933204 2.562658 -28.787689 3.106995 3.495810 
32.466576 55.351761 -122.634079 9.613964 2.249215 -6.641703 14.792891 -7.591580 0.805683 -14.267939 6.312539 1.467416 -10.252100 -2.971281 1.509448 14.483026 9.529248 3.287508 -2.206047 -4.843775 0.617946 -69.783798 -34.077709 19.641188 -40.187935 4.805670 4.451729 8.524705 12.647240 -74.700577 -0.446187 9.003916 1.039738 66.887756 26.678335 -26.164885 39.743721 -4.655515 4.308342 -8.534408 -12.637552 10.999859 -1.726217 7.855102 -5.165291 6.014708 -6.002102 -1.575175 -27.132704 8.832281 1.961088 -8.183006 -11.747464 4.457023 13.850825 5.922250 2.647235 -31.700459 3.444394 3.461286 
32.389351 55.310066 -122.597862 9.546876 2.563677 -5.629447 14.976422 -7.446360 -0.019550 -14.434996 6.295682 1.222152 -16.452759 -3.595220 1.614979 26.719971 11.078296 4.184020 -2.206047 -4.843775 0.617946 -69.737381 -33.928368 20.375271 -40.521633 4.920267 4.566796 8.524705 12.647240 -74.251358 -0.446187 9.003916 1.039738 66.873360 26.365610 -26.292000 39.683445 -4.638946 4.292934 -8.534408 -12.637552 11.263531 -1.834419 7.378285 -6.042263 6.218685 -6.002959 -1.583982 -26.983578 8.711016 1.875537 -8.005825 -12.312266 4.931031 12.773665 5.941962 2.532738 -35.822720 5.007370 4.164645 
32.309731 55.270435 -122.556862 9.421837 3.221438 -4.553748 15.048600 -7.693198 -0.855812 -14.081656 6.258650 1.033780 -20.996239 -3.604197 1.338430 34.721863 11.239721 4.133078 -2.206047 -4.843775 0.617946 -69.652100 -34.266239 20.847607 -40.714191 4.989010 4.635989 8.524705 12.647240 -74.202530 -0.446187 9.003916 1.039738 67.031487 26.289583 -24.841263 40.037510 -4.768505 4.410730 -8.534408 -12.637552 13.216657 -1.871335 6.475073 -6.946797 6.528060 -6.000745 -1.631634 -27.110468 8.215835 1.708918 -7.719906 -13.186656 3.647527 14.188368 5.924325 2.706594 -37.472969 3.761428 3.089873 
32.214054 55.228401 -122.514832 9.256531 4.120742 -3.613045 15.239112 -8.271920 -1.670639 -14.091504 6.253553 0.865637 -20.933578 -5.045371 2.246503 36.060009 14.496615 6.389106 -2.206047 -4.843775 0.617946 -69.532867 -34.298862 21.444307 -40.906853 5.057178 4.704850 8.524705 12.647240 -74.134171 -0.446187 9.003916 1.039738 67.212120 26.038050 -24.654501 40.198746 -4.819655 4.466221 -8.534408 -12.637552 13.734234 -1.776131 5.310535 -7.765367 6.825604 -6.004515 -1.677662 -27.230873 7.801945 1.561579 -7.924744 -14.259940 2.758881 15.620277 5.883871 2.899877 -38.629990 2.889392 2.263198 
32.083523 55.191502 -122.499115 9.104252 4.822006 -3.064766 15.508810 -8.637504 -2.247729 -14.257719 6.314365 0.734805 -21.053541 -5.516564 2.681419 37.569763 15.348965 7.510128 -2.206047 -4.843775 0.617946 -69.530525 -34.328102 21.722002 -41.028843 5.102973 4.751133 8.524705 12.647240 -74.143929 -0.446187 9.003916 1.039738 67.206329 25.793810 -25.211222 40.158684 -4.808469 4.449218 -8.534408 -12.637552 13.245952 -1.666570 4.514446 -8.088104 7.066851 -5.992611 -1.728463 -27.136505 7.654136 1.463240 -8.035131 -15.026560 3.037833 15.546620 5.885435 2.892974 -38.294186 3.016393 2.415612 
31.882599 55.165874 -122.549675 9.036421 5.130739 -3.357140 15.719943 -8.776074 -2.174896 -14.323422 6.546429 0.775594 -21.237846 -5.562222 2.912194 38.835835 14.921378 7.962932 -2.206047 -4.843775 0.617946 -69.658401 -34.550411 21.646862 -41.160641 5.147509 4.797938 8.524705 12.647240 -74.143929 -0.446187 9.003916 1.039738 67.053833 25.528080 -24.690540 40.330257 -4.865842 4.511560 -8.534408 -12.637552 13.597516 -1.822520 4.494691 -7.591650 7.487338 -6.003040 -1.786316 -27.403025 7.169780 1.325469 -8.579226 -14.895425 3.364609 16.947290 5.854194 3.084170 -39.279350 2.315527 1.717872 
31.617779 55.157669 -122.667923 9.062829 5.237399 -4.445343 15.872113 -9.028749 -1.341814 -14.368642 6.839672 1.028834 -21.350361 -4.911524 2.748921 39.539902 13.200100 7.465435 -2.206047 -4.843775 0.617946 -69.669296 -34.776108 22.035902 -41.425182 5.242504 4.889809 8.524705 12.647240 -73.772842 -0.446187 9.003916 1.039738 67.008659 25.293077 -23.626453 40.623993 -4.968751 4.610113 -8.534408 -12.637552 14.857280 -2.224420 4.976825 -6.673492 7.975721 -5.993386 -1.839678 -27.932543 6.662240 1.232979 -9.751177 -14.242593 5.376973 17.496462 5.845054 3.151759 -38.948910 2.707686 2.074836 
31.439066 55.136486 -122.666222 8.974372 5.673653 -4.196664 16.008492 -9.126997 -1.552930 -14.190728 6.898948 1.006005 -21.162703 -4.068473 2.631917 39.768986 11.266878 7.046370 -2.206047 -4.843775 0.617946 -69.684685 -34.825890 22.284063 -41.729511 5.339396 4.994870 8.524705 12.647240 -73.528702 -0.446187 9.003916 1.039738 66.983856 25.009512 -22.665503 40.867294 -5.053769 4.694730 -8.534408 -12.637552 16.214703 -2.421067 4.598718 -6.907250 8.533765 -6.004356 -1.919762 -28.019686 6.518473 1.185372 -9.917104 -14.525475 4.989244 18.458197 5.817052 3.303283 -38.995461 1.718886 1.311404 
